<svg xmlns="http://www.w3.org/2000/svg" viewBox="0 0 100 100" width="600" height="600">  <rect x="0" y="0" width="100" height="100" fill="white"/>  <rect x="0" y="0" width="100" height="100" fill="none" stroke="black" stroke-width="0.25"/>  <circle cx="10" cy="90" r="1" fill="black"/>  <line x1="10" y1="90" x2="10" y2="10" stroke="black" stroke-width="0.25"/>  <line x1="10" y1="90" x2="90" y2="90" stroke="black" stroke-width="0.25"/>  <line x1="10" y1="90" x2="85" y2="90" stroke="red" stroke-width="0.67"/>  <text x="25" y="93" font-family="Verdana" font-size="3" fill="black" dy=".3em">	I'm getting new RAM for my PC  </text>  <line x1="10" y1="90" x2="87.87" y2="51.82" stroke="blue" stroke-width="0.67"/>  <text x="50.00" y="47.1" font-family="Verdana" font-size="3" fill="blue" dy=".3em" transform="rotate(-26.00, 87.87, 31.82)">	Computer Memory  </text>    <line x1="10" y1="90" x2="79.39" y2="17.36" stroke="blue" stroke-width="0.67"/>  <text x="52.39" y="19.00" font-family="Verdana" font-size="3" fill="blue" dy=".3em" transform="rotate(-48.46, 79.39, 17.36)">	Pickup Truck  </text>  <line x1="10" y1="90" x2="72.88" y2="13.43" stroke="blue" stroke-width="0.67"/>  <text x="51.00" y="7.00" font-family="Verdana" font-size="3" fill="blue" dy=".3em" transform="rotate(-52.53, 77.88, 13.43)">	Bighorn Sheep  </text>  <path d="M35 90 A20 20 0 0 0 33.5 78.5" fill="none" stroke="green" stroke-width="1"/>  <text x="26.00" y="69.1" font-family="Verdana" font-size="3" fill="green" dy=".3em" transform="rotate(-15.0, 87.87, 31.82)">	30.22° (d=0.136)  </text>  </svg>